<?xml version="1.0" encoding="utf-8"?>
<!-- Generator: Adobe Illustrator 13.0.2, SVG Export Plug-In . SVG Version: 6.00 Build 14948)  -->
<!DOCTYPE svg PUBLIC "-//W3C//DTD SVG 1.1//EN" "http://www.w3.org/Graphics/SVG/1.1/DTD/svg11.dtd">
<svg version="1.1" id="Layer_1" xmlns="http://www.w3.org/2000/svg" xmlns:xlink="http://www.w3.org/1999/xlink" x="0px" y="0px"
	 width="210.449px" height="164.504px" viewBox="0 0 210.449 164.504" enable-background="new 0 0 210.449 164.504"
	 xml:space="preserve">
<g>
	<g>
		<g>
			<path d="M40.883,29.603L25.892,2.073H9.647v51.548h15.017V25.465h0.145L40.62,53.621h15.45v-1.689
				C47.318,48.287,41.681,40.102,40.883,29.603z M56.068,2.073H41.052v20.628C42.301,13.021,47.795,5.52,56.068,2.073z
				 M73.186,15.284V2.073h4.575C74.537,0.73,70.894,0,66.913,0c-3.98,0-7.623,0.73-10.845,2.073h0.002v49.859
				c3.222,1.342,6.864,2.072,10.843,2.072c8.909,0,16.134-3.645,20.712-9.679V15.284H73.186z M66.913,41.151
				c-4.041,0-10.25-2.669-10.25-14.149s6.209-14.149,10.25-14.149c4.046,0,10.253,2.669,10.253,14.149S70.959,41.151,66.913,41.151z
				 M41.052,29.651v-6.951c-0.18,1.391-0.271,2.826-0.271,4.301c0,0.882,0.038,1.748,0.103,2.601l0.026,0.048H41.052z M77.76,2.073
				c9.463,3.942,15.291,13.188,15.291,24.929c0,6.79-1.952,12.744-5.426,17.322v9.297h15.882V15.284h14.441V2.073H77.76z"/>
		</g>
	</g>
	<path d="M136.912,2.073h15.521l18.771,51.548h-16.46l-2.165-7.365h-16.388l-2.312,7.365h-15.955L136.912,2.073z M149.402,35.21
		l-4.621-15.883h-0.145l-4.981,15.883H149.402z"/>
	<g>
		<g>
			<path d="M78.517,83.062l4.908-13.324c-0.948-8.497-8.293-12.837-16.713-12.837H39.853v13.211h-3.392v6.425H15.885v-6.425h20.576
				V56.901H0v51.549h15.885V88.813h20.576v19.637h15.885V90.473h8.446c6.28,0,6.715,5.125,7.148,10.035
				c0.212,2.631,0.5,5.266,1.268,7.828l8.411-22.838c-0.567-0.377-1.168-0.699-1.81-0.945
				C76.814,84.181,77.714,83.674,78.517,83.062z M60.646,79.425h-8.301v-10.25h7.437c6.064,0,7.869,1.878,7.869,5.126
				C67.651,78.921,63.607,79.425,60.646,79.425z M88.152,56.901l-4.728,12.837c0.068,0.61,0.109,1.238,0.109,1.892
				c0,4.324-1.61,8.834-5.017,11.433l-0.897,2.437c3.262,2.171,5.278,6.433,5.77,11.904c0.219,2.527,0.29,8.662,1.733,11.047
				l2.309-7.365h16.39l2.166,7.365h1.514V67.403l-3.824-10.502H88.152z M90.896,90.038l4.981-15.882h0.146l4.62,15.882H90.896z
				 M69.237,108.45c-0.012-0.038-0.018-0.076-0.029-0.113l-0.042,0.113H69.237z M137.604,87.223h-0.145l-7.363-30.322H107.5v10.502
				l14.947,41.047h0.068V75.383h0.145l8.953,33.066h11.84l8.951-33.066h0.145V56.901h-7.581L137.604,87.223z M195.217,56.901h-27.65
				v13.211h27.65V56.901z M192.762,76.537h-25.195v12.276h25.195V76.537z M167.566,95.239v13.211h28.443V95.239H167.566z"/>
		</g>
	</g>
	<g>
		<g>
			<path d="M107.914,111.73L107.914,111.73l-15.667-0.001l-6.425,32.273h-0.145l-6.064-32.273H65.606l-6.209,31.838h-0.145
				l-6.28-31.838H37.377l14.007,51.549h15.523l5.414-31.404h0.143l5.561,31.404h15.45l2.327-8.308
				c-3.542-4.598-5.533-10.606-5.533-17.468C90.269,124.819,97.073,115.046,107.914,111.73z M124.929,146.213v-17.42
				c-0.006-0.011-0.012-0.021-0.018-0.032v17.484C124.917,146.234,124.923,146.224,124.929,146.213z M173.572,163.278
				c-0.005-0.008-0.009-0.019-0.014-0.026v0.026H173.572z M124.911,111.729v0.005c10.832,3.321,17.63,13.09,17.63,25.769
				c0,12.681-6.798,22.449-17.63,25.771v0.005h16.699v-17.977h7.629c6.282,0,6.715,5.125,7.149,10.035
				c0.215,2.652,0.504,5.308,1.285,7.889v-51.353c-0.836-0.086-1.676-0.144-2.514-0.144H124.911z M149.097,134.252h-6.711v-10.25
				h5.845c6.064,0,7.869,1.879,7.869,5.127C156.1,133.749,152.055,134.252,149.097,134.252z M116.406,151.653
				c-4.045,0-10.254-2.67-10.254-14.15c0-11.479,6.209-14.148,10.254-14.148c2.699,0,6.366,1.19,8.505,5.407v-17.027
				c-2.614-0.801-5.46-1.231-8.505-1.231c-3.04,0-5.882,0.429-8.492,1.228l-12.112,43.24c4.584,5.949,11.767,9.534,20.604,9.534
				c3.045,0,5.891-0.431,8.505-1.231v-17.027C122.772,150.46,119.105,151.653,116.406,151.653z M157.688,163.278
				c-0.006-0.018-0.009-0.035-0.014-0.053v0.053H157.688z M157.674,111.729v0.144c8.169,0.838,15.885,5.744,15.885,14.585v-14.729
				H157.674z M188.719,131.874l18.698-20.145h-19.565l-14.15,17.76h-0.143v-3.031c0,5.342-4.032,10.973-9.301,12.924
				c4.332,1.66,7.002,6.426,7.58,12.85c0.216,2.519,0.291,8.619,1.721,11.021v-15.208l4.402-4.836l12.707,20.07h19.781
				L188.719,131.874z"/>
		</g>
	</g>
</g>
</svg>
